<svg width="18" height="18" viewBox="0 0 18 18" fill="none" xmlns="http://www.w3.org/2000/svg">
<path d="M12 6H6C4.34315 6 3 7.34315 3 9V13.5C3 15.1569 4.34315 16.5 6 16.5H12C13.6569 16.5 15 15.1569 15 13.5V9C15 7.34315 13.6569 6 12 6ZM12 6L12 4.5C12 2.84315 10.6569 1.5 9.00002 1.5C7.8896 1.5 6.92008 2.1033 6.40137 3M10.5 11.25C10.5 12.0784 9.82843 12.75 9 12.75C8.17157 12.75 7.5 12.0784 7.5 11.25C7.5 10.4216 8.17157 9.75 9 9.75C9.82843 9.75 10.5 10.4216 10.5 11.25Z" stroke="#69696B" stroke-width="1.5" stroke-linecap="round" stroke-linejoin="round"/>
</svg>
