<svg width="889" height="593" viewBox="0 0 889 593" fill="none" xmlns="http://www.w3.org/2000/svg">
<g clip-path="url(#clip0_44_70)">
<path d="M422.23 302.16H383.23L386.23 270.16H417.23L422.23 302.16Z" fill="#A0616A"/>
<path opacity="0.1" d="M422.23 302.16H383.23L386.23 270.16H417.23L422.23 302.16Z" fill="black"/>
<path d="M130.628 182.199C148.266 182.199 162.565 167.9 162.565 150.262C162.565 132.623 148.266 118.324 130.628 118.324C112.989 118.324 98.6906 132.623 98.6906 150.262C98.6906 167.9 112.989 182.199 130.628 182.199Z" fill="#FF6884"/>
<path d="M274.617 567.299C274.798 568.825 274.849 570.248 274.746 571.645H197.933C197.234 570.248 196.639 568.799 196.122 567.299C186.731 540.315 202.176 495.401 182.591 428.808C168.051 379.393 140.912 340.74 128.261 322.734C112.712 300.588 95.0932 280.149 74.6804 247.499C70.2564 240.436 65.703 232.778 60.9943 224.422C59.4162 221.627 41.2284 189.21 42.8842 188.201C43.6603 187.736 48.4724 194.281 50.1023 196.48C64.487 215.936 72.8436 224.448 84.8222 238.444C92.0921 246.93 100.682 257.408 112.738 273.578C143.654 314.998 159.1 335.696 164.481 351.193C165.904 355.332 173.484 377.737 187.765 405.523C195.061 419.701 198.709 426.79 200.701 426.221C206.341 424.591 198.735 365.888 174.83 307.211C170.742 297.224 167.689 290.834 161.894 278.752C152.476 259.038 100.035 149.471 61.4859 83.8867C56.6479 75.6337 52.0169 68.1049 47.7481 61.5077C46.9202 60.2659 46.1181 59.0499 45.342 57.8858C39.9607 49.8654 35.2004 43.5269 31.2419 39.4392C29.1463 37.266 23.8168 31.1085 13.1318 18.7419C8.88878 13.8263 5.78415 10.1784 3.68855 7.51357C3.3781 7.12559 3.09355 6.73745 2.8608 6.40111C0.325271 3.08961 -0.399059 1.48543 0.195941 0.631777C1.04975 -0.584273 4.33534 0.114307 7.93154 1.382C8.31968 1.51133 8.73356 1.66655 9.12169 1.82177C13.0283 3.27058 16.9866 5.15931 18.3061 5.80611C30.414 11.6272 42.2374 22.0534 53.181 34.446C57.2429 39.0252 61.1496 43.8632 64.9269 48.8307C77.0864 64.871 87.6939 82.3344 95.7141 96.6933C105.545 114.389 111.444 127.403 111.444 127.403C138.894 188.02 169.345 257.356 170.949 256.761C172.708 256.114 138.946 169.807 129.114 122.927C125.829 107.223 125.234 95.9429 129.554 93.7698C129.709 93.6921 129.865 93.6145 130.046 93.5627C130.718 93.3298 131.339 93.3557 131.676 93.3816C131.676 93.3816 135.686 92.8642 139.903 93.7698C145.155 94.9081 151.131 109.526 156.952 130.042C172.087 182.923 186.472 274.871 186.472 274.871C200.857 366.845 222.692 441.278 227.867 440.45C230.738 439.984 226.625 416.881 230.454 378.358C233.144 351.348 236.197 352.176 245.977 303.33C261.5 225.845 269.261 187.115 269.261 186.908C269.183 185.278 268.977 181.992 269.468 178.577C269.986 174.877 271.305 170.997 274.435 168.798C279.196 165.434 286.854 166.883 289.958 168.798C292.442 170.35 293.71 173.196 293.994 177.283C295.702 203 258.757 277.562 245.977 378.358C239.612 428.575 236.12 455.973 245.977 492.193C255.73 528.103 272.728 550.974 274.617 567.299Z" fill="#F2F2F2"/>
<path d="M613.844 567.299C613.663 568.825 613.611 570.248 613.715 571.645H690.528C691.226 570.248 691.821 568.799 692.339 567.299C701.73 540.315 686.285 495.401 705.87 428.808C720.41 379.393 747.549 340.74 760.2 322.734C775.749 300.588 793.368 280.149 813.78 247.499C818.204 240.436 822.758 232.778 827.466 224.422C829.045 221.627 847.232 189.21 845.577 188.201C844.8 187.736 839.988 194.281 838.358 196.48C823.974 215.936 815.617 224.448 803.639 238.444C796.369 246.93 787.779 257.408 775.723 273.578C744.806 314.998 729.361 335.696 723.98 351.193C722.557 355.332 714.977 377.737 700.695 405.523C693.399 419.701 689.752 426.79 687.759 426.221C682.119 424.591 689.726 365.888 713.631 307.211C717.719 297.224 720.772 290.834 726.567 278.752C735.984 259.038 788.426 149.471 826.975 83.8867C831.813 75.6337 836.444 68.1049 840.713 61.5077C841.541 60.2659 842.343 59.0499 843.119 57.8858C848.5 49.8655 853.26 43.5269 857.219 39.4393C859.314 37.266 864.644 31.1085 875.329 18.7419C879.572 13.8262 882.677 10.1784 884.772 7.51355C885.083 7.12557 885.367 6.73743 885.6 6.40109C888.136 3.0896 888.86 1.48541 888.265 0.631759C887.411 -0.584291 884.125 0.114299 880.529 1.38198C880.141 1.51131 879.727 1.66653 879.339 1.82175C875.432 3.27056 871.474 5.15929 870.155 5.80609C858.047 11.6272 846.223 22.0534 835.28 34.446C831.218 39.0252 827.311 43.8632 823.534 48.8307C811.374 64.871 800.767 82.3343 792.747 96.6932C782.916 114.389 777.017 127.403 777.017 127.403C749.567 188.02 719.116 257.356 717.512 256.761C715.753 256.114 749.515 169.807 759.346 122.927C762.632 107.223 763.227 95.9429 758.907 93.7697C758.751 93.692 758.596 93.6145 758.415 93.5627C757.742 93.3298 757.121 93.3557 756.785 93.3816C756.785 93.3816 752.775 92.8641 748.558 93.7697C743.306 94.9081 737.33 109.525 731.508 130.042C716.374 182.923 701.989 274.871 701.989 274.871C687.604 366.845 665.769 441.278 660.594 440.45C657.723 439.984 661.836 416.881 658.007 378.358C655.316 351.348 652.264 352.176 642.484 303.33C626.961 225.845 619.2 187.115 619.2 186.908C619.277 185.278 619.484 181.992 618.993 178.577C618.475 174.877 617.156 170.997 614.025 168.798C609.265 165.434 601.607 166.883 598.502 168.798C596.019 170.35 594.751 173.196 594.466 177.283C592.759 203 629.703 277.562 642.484 378.358C648.849 428.575 652.341 455.973 642.484 492.193C632.73 528.103 615.733 550.974 613.844 567.299Z" fill="#F2F2F2"/>
<path d="M714.128 570.285C714.128 570.749 713.752 571.125 713.288 571.125H131.088V569.445H713.288C713.752 569.445 714.128 569.821 714.128 570.285Z" fill="#E6E6E6"/>
<path d="M366.268 534.679L372.823 564.09L393.344 561.24L387.644 531.03L366.268 534.679Z" fill="#A0616A"/>
<path d="M476.281 534.679L469.725 564.09L449.205 561.24L454.905 531.03L476.281 534.679Z" fill="#A0616A"/>
<path d="M515.091 467.111L478.158 354.611C469.896 329.444 446.403 312.43 419.914 312.43C390.45 312.43 365.154 333.391 359.68 362.341L339.254 470.35C336.329 485.817 347.858 500.148 363.418 500.788V574.636H369.118V500.819H488.821V574.636H494.521V500.526C509.921 498.244 520.136 482.479 515.091 467.111Z" fill="#CCCCCC"/>
<path d="M438.66 390.521L369.118 392.802C369.118 392.802 342.898 439.543 389.069 445.813C435.24 452.083 475.711 445.243 477.421 425.292C479.131 405.342 464.88 389.951 438.66 390.521Z" fill="#2F2E41"/>
<path d="M382.228 395.652C382.228 395.652 356.008 398.502 353.728 405.912C351.448 413.322 350.308 445.813 350.308 445.813L360.568 539.865L389.639 536.445L383.368 446.383L416.999 438.973L382.228 395.652Z" fill="#2F2E41"/>
<path d="M376.528 550.695C376.528 550.695 367.902 544.995 365.66 547.56C363.418 550.125 351.448 562.665 351.448 562.665L330.357 575.776C330.357 575.776 312.117 592.876 337.767 592.306C363.418 591.736 376.528 584.014 376.528 584.014C376.528 584.014 401.039 583.756 400.469 576.916C399.899 570.075 391.628 552.148 391.628 552.148L376.528 550.695Z" fill="#2F2E41"/>
<path d="M460.32 395.652C460.32 395.652 486.541 398.502 488.821 405.912C491.101 413.322 492.241 445.813 492.241 445.813L481.981 539.865L452.91 536.445L459.18 446.383L425.549 438.973L460.32 395.652Z" fill="#2F2E41"/>
<path d="M466.02 550.695C466.02 550.695 474.647 544.995 476.889 547.56C479.131 550.125 491.101 562.665 491.101 562.665L512.191 575.776C512.191 575.776 530.432 592.876 504.781 592.306C479.131 591.736 466.02 584.014 466.02 584.014C466.02 584.014 441.51 583.756 442.08 576.916C442.65 570.075 450.921 552.148 450.921 552.148L466.02 550.695Z" fill="#2F2E41"/>
<path d="M418.139 285.639H385.049L359.998 297.039L365.698 372.281C365.698 372.281 358.593 395.156 367.276 396.544C375.958 397.932 423.839 406.482 436.95 399.072C450.06 391.662 461.46 393.942 461.46 393.942L446.07 294.189L418.139 285.639Z" fill="#3F3D56"/>
<path d="M402.464 282.504C419.464 282.504 433.245 268.723 433.245 251.723C433.245 234.724 419.464 220.943 402.464 220.943C385.464 220.943 371.683 234.724 371.683 251.723C371.683 268.723 385.464 282.504 402.464 282.504Z" fill="#A0616A"/>
<path d="M370.797 256.761L376.115 263.694L383.432 253.433C383.432 253.433 384.042 262.554 404.164 259.134C424.286 255.713 429.164 254.573 429.164 254.573L431.604 264.834C431.604 264.834 434.043 257.994 434.043 253.433C434.043 248.873 448.677 238.043 433.433 228.923C418.189 219.803 426.116 211.252 407.213 211.822C388.31 212.392 376.724 211.822 374.895 218.663C373.066 225.503 368.797 234.053 369.407 241.463C370.017 248.873 370.797 256.761 370.797 256.761Z" fill="#2F2E41"/>
<path d="M429.029 391.708C421.619 394.17 414.342 392.342 412.776 387.625C411.211 382.909 415.948 377.092 423.362 374.63C426.31 373.607 429.46 373.304 432.549 373.747L464.079 363.714L468.472 378.61L436.922 386.919C434.712 389.123 432.005 390.765 429.029 391.708Z" fill="#A0616A"/>
<path d="M284.561 358.393C277.466 355.133 273.397 348.829 275.472 344.314C277.548 339.798 284.981 338.782 292.079 342.045C294.932 343.309 297.44 345.239 299.395 347.671L329.283 361.866L322.323 375.749L293.598 360.282C290.478 360.383 287.379 359.735 284.561 358.393Z" fill="#A0616A"/>
<path d="M359.895 296.879C359.895 296.879 371.755 301.719 371.387 314.637C371.019 327.555 361.953 345.607 361.953 345.607C361.953 345.607 361.32 386.361 350.178 390.773C339.036 395.184 304.602 366.913 304.602 366.913L312.556 351.721L327.419 350.006L359.895 296.879Z" fill="#3F3D56"/>
<path d="M437.52 296.469C437.52 296.469 449.49 291.909 458.04 301.599C466.59 311.29 472.291 330.67 472.291 330.67C472.291 330.67 499.651 360.881 494.521 371.711C489.391 382.541 444.93 385.391 444.93 385.391L440.37 368.861L450.06 357.461L437.52 296.469Z" fill="#3F3D56"/>
<path d="M468.497 409.047H371.201C365.759 409.047 361.331 404.619 361.331 399.177V342.535C361.331 337.093 365.759 332.665 371.201 332.665H468.497C473.94 332.665 478.368 337.093 478.368 342.535V399.177C478.368 404.619 473.94 409.047 468.497 409.047Z" fill="#FFBA03"/>
<path d="M211.919 388.118C209.508 386.854 205.71 392.139 203.655 390.91C201.607 389.685 204.666 384.011 203.514 376.064C203.306 374.631 201.997 365.601 198.358 364.809C191.459 363.307 182.257 392.722 171.855 391.363C169.572 391.064 166.989 389.252 159.916 388.085C157.103 387.62 155.552 387.583 154.645 388.511C153.358 389.829 154.492 391.938 155.328 396.946C156.581 404.456 154.911 404.985 156.438 410.652C157.571 414.859 159.087 416.777 158.09 417.946C156.679 419.602 152.734 416.831 150.71 418.544C148.644 420.293 149.973 425.532 151.564 429.087C154.549 435.759 159.323 438.433 163.216 441.939C167.448 445.75 172.617 452.324 175.638 464.28L198.608 571.375C194.38 549.1 183.853 487.384 180.909 463.853C180.06 457.06 179.415 450.036 183.59 444.534C187.609 439.237 195.61 435.989 203.48 428.066C204.4 427.141 206.925 424.533 206.216 422.539C205.63 420.89 203.367 421.163 202.797 419.632C202.033 417.578 205.484 415.421 208.44 410.685C210.525 407.346 211.304 404.423 211.974 401.909C212.176 401.152 215.127 389.802 211.919 388.118Z" fill="#F2F2F2"/>
<path d="M117.726 510.004C116.41 510.822 117.908 514.211 116.712 514.865C115.52 515.517 113.617 512.378 109.385 510.651C108.622 510.339 103.812 508.376 102.373 509.934C99.645 512.886 111.427 525.89 107.759 530.603C106.954 531.638 105.319 532.383 102.705 535.517C101.665 536.764 101.2 537.514 101.394 538.227C101.669 539.239 103.032 539.291 105.73 540.326C109.778 541.877 109.556 542.85 112.778 543.736C115.169 544.393 116.548 544.203 116.834 545.03C117.24 546.199 114.741 547.336 114.998 548.824C115.261 550.343 118.215 551.202 120.419 551.447C124.555 551.907 127.245 550.335 130.089 549.436C133.18 548.459 137.899 547.818 144.638 549.786L203.829 569.412C191.676 565.06 158.348 552.42 145.95 547.075C142.371 545.532 138.737 543.822 137.241 540.185C135.801 536.684 136.516 531.82 134.898 525.671C134.709 524.953 134.158 522.961 132.974 522.734C131.996 522.546 131.477 523.735 130.561 523.573C129.333 523.356 129.269 521.039 127.798 518.222C126.761 516.236 125.551 515.01 124.511 513.955C124.197 513.638 119.478 508.915 117.726 510.004Z" fill="#F2F2F2"/>
<path d="M147.687 499.69L142.519 493.085L142.55 492.323C142.698 488.8 142.057 485.843 140.647 483.531C140.422 483.163 140.179 482.807 139.932 482.444C138.951 481.006 137.732 479.219 137.369 476.483C137.17 474.956 136.975 471.257 139.457 470.199C140.122 469.908 140.758 469.904 141.311 470.016C141.312 469.902 141.315 469.788 141.316 469.664C141.358 468.148 141.634 467.341 141.899 466.563C142.102 465.964 142.313 465.348 142.469 464.098C142.538 463.55 142.569 463.086 142.596 462.696C142.679 461.515 142.844 460.066 144.208 459.249C145.696 458.426 147.19 459.155 148.18 459.637C149.946 460.497 150.979 461.264 151.664 461.773C151.914 461.96 152.196 462.169 152.305 462.219C153.194 462.617 156.586 459.642 157.87 458.53C160.745 456.02 163.234 453.848 165.622 455.165C167.332 456.106 167.902 458.393 167.356 462.148C167.185 463.317 166.86 464.326 166.533 465.161C167.224 465.151 167.961 465.335 168.592 465.948C170.084 467.402 169.668 470.036 167.361 473.784C166.79 474.717 166.018 475.969 164.617 477.205C163.957 477.787 163.311 478.228 162.753 478.595C162.944 478.932 163.086 479.336 163.112 479.826C163.189 481.267 162.283 482.535 160.364 483.548C158.27 484.691 156.361 485.334 154.679 485.902C153.211 486.401 151.948 486.834 151.114 487.428C149.58 488.553 149.133 490.611 148.706 493.186L147.687 499.69Z" fill="#F2F2F2"/>
<path d="M125.336 455.171L120.258 461.846L119.513 462.008C116.068 462.759 113.37 464.129 111.491 466.08C111.192 466.39 110.91 466.716 110.621 467.047C109.479 468.36 108.06 469.993 105.506 471.038C104.079 471.618 100.55 472.745 98.8972 470.612C98.447 470.043 98.2817 469.429 98.2501 468.865C98.1397 468.893 98.0279 468.92 97.9076 468.95C96.4312 469.293 95.58 469.232 94.7602 469.173C94.1301 469.128 93.48 469.081 92.2314 469.246C91.6837 469.319 91.2274 469.407 90.8434 469.48C89.6801 469.699 88.236 469.906 87.0998 468.794C85.9267 467.564 86.253 465.933 86.4682 464.854C86.8516 462.928 87.3317 461.734 87.6505 460.942C87.7676 460.653 87.898 460.327 87.9195 460.208C88.0792 459.248 84.3408 456.721 82.9393 455.762C79.7821 453.617 77.0501 451.761 77.7184 449.116C78.195 447.223 80.2622 446.092 84.0325 445.668C85.2065 445.536 86.2654 445.596 87.156 445.7C86.9711 445.034 86.9618 444.274 87.3951 443.508C88.423 441.697 91.0769 441.431 95.2871 442.712C96.3349 443.027 97.7412 443.457 99.2927 444.498C100.023 444.989 100.613 445.502 101.11 445.949C101.387 445.679 101.741 445.439 102.209 445.29C103.584 444.849 105.04 445.404 106.506 447.004C108.144 448.739 109.249 450.422 110.226 451.905C111.08 453.199 111.819 454.31 112.606 454.967C114.083 456.165 116.188 456.076 118.787 455.835L125.336 455.171Z" fill="#F2F2F2"/>
<path d="M108.766 436.54L103.598 429.935L103.63 429.173C103.777 425.65 103.136 422.693 101.726 420.381C101.501 420.013 101.258 419.657 101.011 419.294C100.03 417.856 98.8108 416.069 98.4482 413.333C98.2492 411.806 98.0539 408.107 100.537 407.049C101.201 406.758 101.837 406.754 102.39 406.866C102.391 406.752 102.394 406.637 102.395 406.514C102.438 404.998 102.713 404.191 102.978 403.413C103.181 402.814 103.392 402.198 103.548 400.948C103.617 400.4 103.648 399.936 103.675 399.546C103.758 398.365 103.923 396.916 105.287 396.099C106.775 395.276 108.269 396.005 109.259 396.487C111.025 397.347 112.058 398.114 112.743 398.623C112.993 398.81 113.275 399.019 113.384 399.069C114.273 399.467 117.665 396.492 118.949 395.38C121.824 392.87 124.313 390.698 126.701 392.015C128.411 392.956 128.981 395.243 128.435 398.998C128.265 400.167 127.939 401.176 127.612 402.011C128.303 402.001 129.04 402.185 129.671 402.798C131.163 404.252 130.747 406.886 128.44 410.634C127.869 411.567 127.097 412.819 125.696 414.055C125.036 414.637 124.39 415.078 123.832 415.445C124.023 415.782 124.165 416.186 124.191 416.676C124.268 418.117 123.362 419.385 121.443 420.397C119.349 421.541 117.44 422.184 115.758 422.752C114.29 423.251 113.027 423.684 112.193 424.278C110.659 425.403 110.212 427.461 109.785 430.036L108.766 436.54Z" fill="#F2F2F2"/>
<path d="M200.912 569.795L198.851 569.78L197.24 571.047C197.113 570.903 196.791 570.591 196.292 570.1C193.56 567.405 185.244 559.209 173.899 545.22C165.98 535.455 158.475 525.023 151.589 514.21C144.692 503.38 140.11 494.787 136.426 487.881C133.648 482.672 131.085 477.662 128.591 472.779C121.923 459.737 115.624 447.418 106.915 434.849C104.973 432.042 100.926 426.202 93.4358 421.949C89.0912 419.483 84.2318 417.911 78.9935 417.282L79.4859 413.187C85.2706 413.886 90.6495 415.63 95.4736 418.367C103.778 423.082 108.188 429.446 110.306 432.504C119.168 445.295 125.527 457.733 132.258 470.902C134.745 475.765 137.295 480.755 140.062 485.943C143.712 492.785 148.255 501.302 155.064 511.993C161.866 522.678 169.28 532.981 177.098 542.624C188.301 556.436 196.494 564.51 199.185 567.163C200.621 568.58 200.922 568.877 200.912 569.795Z" fill="#F2F2F2"/>
<path d="M75.9949 426.822C75.851 426.911 75.7032 426.997 75.5496 427.078C72.4628 428.758 68.594 428.675 64.0501 426.833C61.9166 425.963 60.211 424.523 56.8097 421.651C56.2843 421.209 53.6578 418.942 50.7283 415.4C48.8132 413.087 48.2053 412.001 48.1307 410.756C48.0455 409.371 48.499 408.09 49.2111 406.975C48.9597 406.667 48.7823 406.298 48.7105 405.856C48.4067 404.024 50.1146 403.236 51.0316 402.799C51.5005 402.586 52.0879 402.323 52.6548 401.931C53.5489 401.318 53.8751 400.739 54.372 399.865C54.8469 399.029 55.4374 397.989 56.5948 396.902C58.8698 394.749 61.5134 394.14 62.3846 393.939C66.9581 392.865 70.6469 394.662 74.9174 396.743C75.7714 397.162 78.7905 398.743 81.876 401.559C84.1021 403.591 84.6785 404.749 84.9686 405.695C85.5695 407.637 85.1415 409.224 83.858 412.937C82.521 416.82 81.8485 418.766 81.0995 420.159C79.3528 423.396 78.2561 425.429 75.9949 426.822Z" fill="#F2F2F2"/>
<path d="M235.426 351.842L262.359 345.581L264.289 351.176L277.318 347.657L285.912 345.335L294.258 329.121L288.336 311.957L270.702 311.791L265.31 312.852L250.269 315.81C248.996 317.917 249.691 320.658 251.815 321.902L252.512 322.31L231.35 325.974C231.35 325.974 224.591 338.004 235.426 351.842Z" fill="#3F3D56"/>
<path d="M265.31 312.852L277.318 347.657L285.912 345.335L294.258 329.121L288.336 311.957L270.702 311.791L265.31 312.852Z" fill="#2F2E41"/>
<path d="M260.755 314.302C262.608 313.892 263.945 312.808 263.74 311.881C263.534 310.954 261.865 310.536 260.012 310.946C258.158 311.356 256.821 312.44 257.027 313.367C257.232 314.294 258.901 314.713 260.755 314.302Z" fill="#3F3D56"/>
<path d="M683.442 573.548L670.518 546.234L670.441 546.29V510.788H658.816V546.29L658.739 546.234L645.815 574.323C645.432 574.995 645.666 575.851 646.339 576.235C646.909 576.56 647.629 576.446 648.071 575.96L661.29 560.492L663.429 574.576C663.514 575.346 664.207 575.901 664.977 575.815C665.629 575.743 666.144 575.228 666.216 574.576L668.332 560.647L681.187 575.185C681.708 575.758 682.595 575.8 683.168 575.279C683.653 574.837 683.768 574.118 683.442 573.548Z" fill="#2F2E41"/>
<path d="M591.121 470.963C589.063 484.58 618.845 508.517 662.752 515.153C706.659 521.79 749.495 512.204 751.553 498.587C753.612 484.97 719.478 471.063 675.571 464.427C631.664 457.79 593.179 457.346 591.121 470.963Z" fill="#A0616A"/>
<path opacity="0.3" d="M591.121 470.963C589.063 484.58 618.845 508.517 662.752 515.153C706.659 521.79 749.495 512.204 751.553 498.587C753.612 484.97 719.478 471.063 675.571 464.427C631.664 457.79 593.179 457.346 591.121 470.963Z" fill="black"/>
<path d="M592.851 468.97C591.156 480.185 620.218 499.434 664.125 506.07C708.032 512.707 750.307 507.964 752.002 496.75C753.697 485.535 719.478 471.063 675.571 464.427C631.664 457.79 594.546 457.755 592.851 468.97Z" fill="#FFBA03"/>
<path d="M692.277 302.252H528.231C521.627 302.252 516.254 296.879 516.254 290.276V166.229C516.254 159.625 521.627 154.252 528.231 154.252H692.277C698.881 154.252 704.254 159.625 704.254 166.229V290.276C704.254 296.879 698.881 302.252 692.277 302.252Z" fill="white"/>
<path d="M692.277 302.252H528.231C521.627 302.252 516.254 296.879 516.254 290.276V166.229C516.254 159.625 521.627 154.252 528.231 154.252H692.277C698.881 154.252 704.254 159.625 704.254 166.229V290.276C704.254 296.879 698.881 302.252 692.277 302.252ZM528.231 156.252C522.73 156.252 518.254 160.728 518.254 166.229V290.276C518.254 295.777 522.73 300.252 528.231 300.252H692.277C697.778 300.252 702.254 295.777 702.254 290.276V166.229C702.254 160.728 697.778 156.252 692.277 156.252H528.231Z" fill="#3F3D56"/>
<path d="M674.254 169.252C675.911 169.252 677.254 167.909 677.254 166.252C677.254 164.595 675.911 163.252 674.254 163.252C672.597 163.252 671.254 164.595 671.254 166.252C671.254 167.909 672.597 169.252 674.254 169.252Z" fill="#3F3D56"/>
<path d="M682.254 169.252C683.911 169.252 685.254 167.909 685.254 166.252C685.254 164.595 683.911 163.252 682.254 163.252C680.597 163.252 679.254 164.595 679.254 166.252C679.254 167.909 680.597 169.252 682.254 169.252Z" fill="#3F3D56"/>
<path d="M690.254 169.252C691.911 169.252 693.254 167.909 693.254 166.252C693.254 164.595 691.911 163.252 690.254 163.252C688.597 163.252 687.254 164.595 687.254 166.252C687.254 167.909 688.597 169.252 690.254 169.252Z" fill="#3F3D56"/>
<path d="M533.254 214.752C532.427 214.752 531.754 215.425 531.754 216.252C531.754 216.656 531.91 217.029 532.193 217.304C532.478 217.596 532.851 217.752 533.254 217.752H688.254C689.081 217.752 689.754 217.079 689.754 216.252C689.754 215.849 689.598 215.476 689.316 215.2C689.03 214.908 688.657 214.752 688.254 214.752H533.254Z" fill="#E6E6E6"/>
<path d="M660.254 214.252V218.252H533.254C532.704 218.252 532.204 218.032 531.844 217.662C531.474 217.302 531.254 216.802 531.254 216.252C531.254 215.152 532.154 214.252 533.254 214.252H660.254Z" fill="#FFBA03"/>
<path d="M685.754 206.752H665.754C663.548 206.752 661.754 204.958 661.754 202.752C661.754 200.546 663.548 198.752 665.754 198.752H685.754C687.96 198.752 689.754 200.546 689.754 202.752C689.754 204.958 687.96 206.752 685.754 206.752Z" fill="#E6E6E6"/>
<path d="M554.754 185.752H534.754C532.548 185.752 530.754 183.958 530.754 181.752C530.754 179.546 532.548 177.752 534.754 177.752H554.754C556.96 177.752 558.754 179.546 558.754 181.752C558.754 183.958 556.96 185.752 554.754 185.752Z" fill="#E6E6E6"/>
<path d="M533.254 259.752C532.427 259.752 531.754 260.425 531.754 261.252C531.754 261.656 531.91 262.029 532.193 262.304C532.478 262.596 532.851 262.752 533.254 262.752H688.254C689.081 262.752 689.754 262.079 689.754 261.252C689.754 260.849 689.598 260.476 689.316 260.2C689.03 259.908 688.657 259.752 688.254 259.752H533.254Z" fill="#E6E6E6"/>
<path d="M583.254 259.252V263.252H533.254C532.704 263.252 532.204 263.032 531.844 262.662C531.474 262.302 531.254 261.802 531.254 261.252C531.254 260.152 532.154 259.252 533.254 259.252H583.254Z" fill="#FFBA03"/>
<path d="M685.754 251.752H665.754C663.548 251.752 661.754 249.958 661.754 247.752C661.754 245.546 663.548 243.752 665.754 243.752H685.754C687.96 243.752 689.754 245.546 689.754 247.752C689.754 249.958 687.96 251.752 685.754 251.752Z" fill="#E6E6E6"/>
</g>
<defs>
<clipPath id="clip0_44_70">
<rect width="888.461" height="592.32" fill="white"/>
</clipPath>
</defs>
</svg>
