<svg width="89" height="24" viewBox="0 0 89 24" fill="none" xmlns="http://www.w3.org/2000/svg">
<path d="M13.44 23C11.3707 23.2133 9.344 23.32 7.36 23.32C5.90933 23.32 4.74667 22.8827 3.872 22.008C2.99733 21.1333 2.56 19.9707 2.56 18.52V10.36H0.64V6.04H2.56L3.2 2.2H8.16V6.04H12.16V10.36H8.16V17.72C8.16 18.04 8.26667 18.3067 8.48 18.52C8.69333 18.7333 8.96 18.84 9.28 18.84H13.44V23ZM23.5338 18.68C24.6644 18.68 25.9444 18.4667 27.3738 18.04V6.04H32.9738V23H28.0138L27.6938 21.4C26.6911 22.0613 25.6564 22.552 24.5898 22.872C23.5444 23.1707 22.6591 23.32 21.9338 23.32H20.4938C19.0431 23.32 17.8804 22.8827 17.0058 22.008C16.1311 21.1333 15.6938 19.9707 15.6938 18.52V6.04H21.2938V17.56C21.2938 17.88 21.4004 18.1467 21.6138 18.36C21.8271 18.5733 22.0938 18.68 22.4138 18.68H23.5338ZM45.9225 10.68C44.5785 10.68 43.1918 11 41.7625 11.64V23H36.1625V6.04H41.1225L41.4425 8.12C43.2772 6.52 45.1972 5.72 47.2025 5.72H48.6425V10.68H45.9225ZM62.2413 11.16C62.2413 10.84 62.1346 10.5733 61.9213 10.36C61.7079 10.1467 61.4413 10.04 61.1213 10.04H60.3213C59.4253 10.04 58.6466 10.0827 57.9853 10.168C57.3453 10.2533 56.8439 10.3173 56.4813 10.36V18.68H60.9613C61.8146 18.68 62.2413 18.2533 62.2413 17.4V11.16ZM56.4813 6.36C58.5506 5.93333 60.3639 5.72 61.9213 5.72H63.0413C64.4919 5.72 65.6546 6.15733 66.5293 7.032C67.4039 7.90667 67.8413 9.06933 67.8413 10.52V17.88C67.8413 19.48 67.3826 20.7387 66.4653 21.656C65.5693 22.552 64.3213 23 62.7213 23H50.8813V0.599998H56.4813V6.36Z" fill="white"/>
<path d="M88.005 18.2C88.005 19.8 87.5463 21.0587 86.629 21.976C85.733 22.872 84.485 23.32 82.885 23.32H75.525C73.925 23.32 72.6663 22.872 71.749 21.976C70.853 21.0587 70.405 19.8 70.405 18.2V10.84C70.405 9.24 70.853 7.992 71.749 7.096C72.6663 6.17867 73.925 5.72 75.525 5.72H82.885C84.485 5.72 85.733 6.17867 86.629 7.096C87.5463 7.992 88.005 9.24 88.005 10.84V18.2ZM82.405 11.32C82.405 10.4667 81.9783 10.04 81.125 10.04H77.285C76.4317 10.04 76.005 10.4667 76.005 11.32V17.72C76.005 18.5733 76.4317 19 77.285 19H81.125C81.9783 19 82.405 18.5733 82.405 17.72V11.32Z" fill="#FFBA03"/>
</svg>
